<svg width="800px" height="800px" viewBox="0 0 24 24" fill="none" xmlns="http://www.w3.org/2000/svg">
  <path d="M12 21C16.9706 21 21 16.9706 21 12C21 7.02944 16.9706 3 12 3C7.02944 3 3 7.02944 3 12C3 16.9706 7.02944 21 12 21Z" stroke="#1677ff" stroke-width="1.5"/>
  <path d="M3.5 11H20.5" stroke="#1677ff" stroke-width="1.5"/>
  <path d="M3.5 13H20.5" stroke="#1677ff" stroke-width="1.5"/>
  <path d="M11.5 3.5C9.29393 6.80848 8 9.84151 8 12C8 14.1585 9.29393 17.1915 11.5 20.5" stroke="#1677ff" stroke-width="1.5"/>
  <path d="M12.5 3.5C14.7061 6.80848 16 9.84151 16 12C16 14.1585 14.7061 17.1915 12.5 20.5" stroke="#1677ff" stroke-width="1.5"/>
</svg>